<?xml version="1.0" standalone="no"?>
<!DOCTYPE svg PUBLIC "-//W3C//DTD SVG 20010904//EN"
 "http://www.w3.org/TR/2001/REC-SVG-20010904/DTD/svg10.dtd">
<svg version="1.0" xmlns="http://www.w3.org/2000/svg"
 width="200.000000pt" height="200.000000pt" viewBox="0 0 200.000000 200.000000"
 preserveAspectRatio="xMidYMid meet">

<g transform="translate(0.000000,200.000000) scale(0.100000,-0.100000)"
fill="#000000" stroke="none">
<path d="M956 1930 c-136 -35 -197 -142 -126 -223 16 -19 43 -40 60 -47 53
-22 38 -43 -43 -62 -171 -41 -338 -157 -443 -309 -22 -32 -24 -41 -14 -54 22
-26 44 -16 79 36 42 62 130 143 205 188 198 119 469 134 676 35 41 -19 89 -46
107 -60 17 -13 43 -24 57 -24 109 0 -73 131 -255 183 -91 27 -109 46 -61 66
36 15 77 57 91 92 33 88 -73 176 -221 184 -40 2 -90 0 -112 -5z m213 -83 c25
-12 49 -29 54 -38 15 -25 1 -63 -32 -82 -28 -17 -30 -17 -43 1 -45 63 -140 69
-190 13 -30 -33 -36 -33 -75 2 -100 90 139 176 286 104z m-79 -147 c11 -11 20
-33 20 -48 0 -28 0 -28 -62 -26 -54 1 -63 4 -66 21 -4 28 35 73 64 73 13 0 33
-9 44 -20z"/>
<path d="M900 1484 c-229 -49 -430 -246 -490 -480 -76 -295 69 -616 335 -744
197 -94 412 -94 605 1 215 107 350 334 350 591 0 179 -59 317 -190 449 -69 70
-101 94 -170 128 -140 68 -292 87 -440 55z m180 -134 c0 -4 24 -60 54 -124
l54 -115 63 24 c69 28 105 31 112 13 2 -7 -7 -46 -21 -86 -16 -44 -22 -75 -16
-80 5 -5 62 -32 126 -61 116 -53 141 -74 116 -96 -7 -7 -66 -36 -130 -65 -65
-29 -118 -58 -118 -65 0 -7 11 -42 25 -78 22 -59 23 -68 9 -81 -13 -14 -22
-13 -81 9 -36 14 -71 25 -78 25 -6 0 -36 -53 -65 -117 -55 -121 -72 -145 -95
-137 -7 3 -39 63 -71 134 l-57 128 -76 -27 c-42 -16 -82 -26 -88 -24 -20 7
-16 43 12 113 14 35 24 64 22 65 -1 1 -59 28 -129 60 -70 31 -129 62 -131 69
-9 24 8 36 131 91 70 32 128 59 129 60 2 1 -8 30 -22 65 -28 70 -32 106 -12
113 6 2 46 -8 88 -24 l76 -27 54 120 c61 138 72 153 100 138 10 -6 19 -15 19
-20z"/>
<path d="M1019 1250 c-58 -119 -99 -213 -99 -224 0 -15 118 -132 125 -124 3 3
4 95 3 204 l-3 199 -26 -55z"/>
<path d="M821 1051 c12 -33 27 -39 47 -19 17 17 15 25 -5 31 -10 2 -26 8 -35
12 -16 6 -17 4 -7 -24z"/>
<path d="M1248 1068 c-32 -11 -36 -32 -11 -47 14 -8 20 -4 30 21 8 17 12 32
11 33 -2 1 -15 -2 -30 -7z"/>
<path d="M1163 910 c-35 -33 -63 -62 -63 -65 0 -3 91 -5 202 -5 120 0 198 4
193 9 -11 10 -253 121 -263 121 -4 -1 -35 -27 -69 -60z"/>
<path d="M596 841 c12 -12 254 -121 268 -121 7 0 38 26 69 58 l58 59 -77 6
c-115 10 -330 9 -318 -2z"/>
<path d="M1051 595 l1 -200 48 101 c26 56 54 118 61 138 l13 37 -62 62 -62 62
1 -200z"/>
<path d="M821 639 c-10 -28 -9 -30 7 -24 9 4 25 10 35 12 20 6 22 14 5 31 -20
20 -35 14 -47 -19z"/>
<path d="M1227 663 c-14 -13 -6 -30 19 -42 33 -15 38 -10 23 23 -12 25 -29 33
-42 19z"/>
<path d="M1618 1420 c-9 -23 -29 -47 -46 -57 l-30 -17 30 -19 c16 -10 37 -36
46 -57 10 -22 19 -40 22 -40 3 0 12 18 22 40 9 21 30 47 46 57 l30 19 -30 17
c-17 10 -37 34 -46 57 -9 22 -19 40 -22 40 -3 0 -13 -18 -22 -40z"/>
<path d="M275 1235 c-11 -22 -35 -50 -54 -62 -19 -13 -27 -23 -18 -23 23 0 75
-56 82 -90 l7 -31 24 50 c16 31 36 54 53 62 l28 13 -31 20 c-17 12 -40 39 -51
61 l-20 40 -20 -40z"/>
<path d="M1706 1223 c-12 -37 -6 -80 18 -148 121 -341 -44 -725 -381 -881
-184 -86 -404 -88 -587 -5 -54 24 -67 27 -76 16 -6 -8 -21 -15 -33 -17 -28 -4
57 -50 155 -84 119 -40 237 -51 354 -32 316 52 565 278 650 589 25 90 25 281
0 369 -19 66 -80 210 -90 210 -2 0 -7 -8 -10 -17z"/>
<path d="M299 942 c-24 -3 -27 -8 -32 -53 -12 -103 25 -283 80 -394 38 -74 84
-138 93 -128 20 20 13 70 -18 123 -55 95 -84 200 -91 335 l-6 120 -26 -3z"/>
<path d="M506 356 c-10 -40 -42 -83 -66 -91 -27 -9 -25 -17 11 -37 19 -11 37
-34 47 -58 l15 -41 14 33 c17 39 51 78 70 78 20 0 15 18 -7 25 -23 7 -59 55
-69 93 l-8 27 -7 -29z"/>
</g>
</svg>
